<mxfile host="app.diagrams.net" modified="2020-11-18T08:50:33.229Z" agent="5.0 (Windows NT 10.0; Win64; x64) AppleWebKit/537.36 (KHTML, like Gecko) Chrome/87.0.4280.66 Safari/537.36" etag="0NxnDY4JCoCylDHcNEMR" version="13.9.9" type="github">
  <diagram id="b3nM-uWUJkLZfT_GbLBI" name="Page-1">
    <mxGraphModel dx="1422" dy="1969" grid="1" gridSize="10" guides="1" tooltips="1" connect="1" arrows="1" fold="1" page="1" pageScale="1" pageWidth="827" pageHeight="1169" math="0" shadow="0">
      <root>
        <mxCell id="0" />
        <mxCell id="1" parent="0" />
        <mxCell id="AcxDM_mVUxx4Y-OriM8n-49" style="edgeStyle=orthogonalEdgeStyle;rounded=0;orthogonalLoop=1;jettySize=auto;html=1;entryX=0;entryY=0.25;entryDx=0;entryDy=0;" parent="1" source="AcxDM_mVUxx4Y-OriM8n-1" target="AcxDM_mVUxx4Y-OriM8n-15" edge="1">
          <mxGeometry relative="1" as="geometry" />
        </mxCell>
        <mxCell id="AcxDM_mVUxx4Y-OriM8n-50" style="edgeStyle=orthogonalEdgeStyle;rounded=0;orthogonalLoop=1;jettySize=auto;html=1;exitX=1;exitY=0.5;exitDx=0;exitDy=0;entryX=0;entryY=0.75;entryDx=0;entryDy=0;" parent="1" source="AcxDM_mVUxx4Y-OriM8n-1" target="AcxDM_mVUxx4Y-OriM8n-5" edge="1">
          <mxGeometry relative="1" as="geometry" />
        </mxCell>
        <mxCell id="AcxDM_mVUxx4Y-OriM8n-51" style="edgeStyle=orthogonalEdgeStyle;rounded=0;orthogonalLoop=1;jettySize=auto;html=1;exitX=1;exitY=0.5;exitDx=0;exitDy=0;entryX=0;entryY=0.25;entryDx=0;entryDy=0;" parent="1" source="AcxDM_mVUxx4Y-OriM8n-1" target="AcxDM_mVUxx4Y-OriM8n-17" edge="1">
          <mxGeometry relative="1" as="geometry" />
        </mxCell>
        <mxCell id="AcxDM_mVUxx4Y-OriM8n-52" style="edgeStyle=orthogonalEdgeStyle;rounded=0;orthogonalLoop=1;jettySize=auto;html=1;exitX=1;exitY=0.5;exitDx=0;exitDy=0;entryX=0;entryY=0.5;entryDx=0;entryDy=0;" parent="1" source="AcxDM_mVUxx4Y-OriM8n-1" target="AcxDM_mVUxx4Y-OriM8n-23" edge="1">
          <mxGeometry relative="1" as="geometry" />
        </mxCell>
        <mxCell id="AcxDM_mVUxx4Y-OriM8n-53" style="edgeStyle=orthogonalEdgeStyle;rounded=0;orthogonalLoop=1;jettySize=auto;html=1;exitX=1;exitY=0.5;exitDx=0;exitDy=0;entryX=0;entryY=0.25;entryDx=0;entryDy=0;" parent="1" source="AcxDM_mVUxx4Y-OriM8n-1" target="AcxDM_mVUxx4Y-OriM8n-26" edge="1">
          <mxGeometry relative="1" as="geometry" />
        </mxCell>
        <mxCell id="AcxDM_mVUxx4Y-OriM8n-54" style="edgeStyle=orthogonalEdgeStyle;rounded=0;orthogonalLoop=1;jettySize=auto;html=1;exitX=1;exitY=0.5;exitDx=0;exitDy=0;entryX=0;entryY=0.378;entryDx=0;entryDy=0;entryPerimeter=0;" parent="1" source="AcxDM_mVUxx4Y-OriM8n-1" target="AcxDM_mVUxx4Y-OriM8n-28" edge="1">
          <mxGeometry relative="1" as="geometry" />
        </mxCell>
        <mxCell id="AcxDM_mVUxx4Y-OriM8n-55" style="edgeStyle=orthogonalEdgeStyle;rounded=0;orthogonalLoop=1;jettySize=auto;html=1;exitX=1;exitY=0.5;exitDx=0;exitDy=0;entryX=0;entryY=0.5;entryDx=0;entryDy=0;" parent="1" source="AcxDM_mVUxx4Y-OriM8n-1" target="AcxDM_mVUxx4Y-OriM8n-33" edge="1">
          <mxGeometry relative="1" as="geometry" />
        </mxCell>
        <mxCell id="AcxDM_mVUxx4Y-OriM8n-56" style="edgeStyle=orthogonalEdgeStyle;rounded=0;orthogonalLoop=1;jettySize=auto;html=1;exitX=1;exitY=0.5;exitDx=0;exitDy=0;entryX=0;entryY=0.25;entryDx=0;entryDy=0;" parent="1" source="AcxDM_mVUxx4Y-OriM8n-1" target="AcxDM_mVUxx4Y-OriM8n-34" edge="1">
          <mxGeometry relative="1" as="geometry" />
        </mxCell>
        <mxCell id="AcxDM_mVUxx4Y-OriM8n-57" style="edgeStyle=orthogonalEdgeStyle;rounded=0;orthogonalLoop=1;jettySize=auto;html=1;exitX=1;exitY=0.5;exitDx=0;exitDy=0;entryX=0;entryY=0.5;entryDx=0;entryDy=0;" parent="1" source="AcxDM_mVUxx4Y-OriM8n-1" target="AcxDM_mVUxx4Y-OriM8n-38" edge="1">
          <mxGeometry relative="1" as="geometry" />
        </mxCell>
        <mxCell id="AcxDM_mVUxx4Y-OriM8n-58" style="edgeStyle=orthogonalEdgeStyle;rounded=0;orthogonalLoop=1;jettySize=auto;html=1;exitX=1;exitY=0.5;exitDx=0;exitDy=0;entryX=0;entryY=0.5;entryDx=0;entryDy=0;" parent="1" source="AcxDM_mVUxx4Y-OriM8n-1" target="AcxDM_mVUxx4Y-OriM8n-41" edge="1">
          <mxGeometry relative="1" as="geometry" />
        </mxCell>
        <mxCell id="AcxDM_mVUxx4Y-OriM8n-59" style="edgeStyle=orthogonalEdgeStyle;rounded=0;orthogonalLoop=1;jettySize=auto;html=1;exitX=1;exitY=0.5;exitDx=0;exitDy=0;entryX=0;entryY=0.5;entryDx=0;entryDy=0;" parent="1" source="AcxDM_mVUxx4Y-OriM8n-1" target="AcxDM_mVUxx4Y-OriM8n-46" edge="1">
          <mxGeometry relative="1" as="geometry" />
        </mxCell>
        <mxCell id="AcxDM_mVUxx4Y-OriM8n-60" style="edgeStyle=orthogonalEdgeStyle;rounded=0;orthogonalLoop=1;jettySize=auto;html=1;exitX=1;exitY=0.5;exitDx=0;exitDy=0;entryX=0;entryY=0.75;entryDx=0;entryDy=0;" parent="1" source="AcxDM_mVUxx4Y-OriM8n-1" target="AcxDM_mVUxx4Y-OriM8n-18" edge="1">
          <mxGeometry relative="1" as="geometry" />
        </mxCell>
        <mxCell id="AcxDM_mVUxx4Y-OriM8n-1" value="&lt;font style=&quot;font-size: 25px&quot;&gt;kick-off&lt;/font&gt;" style="rounded=1;whiteSpace=wrap;html=1;" parent="1" vertex="1">
          <mxGeometry x="80" y="180" width="120" height="60" as="geometry" />
        </mxCell>
        <mxCell id="AcxDM_mVUxx4Y-OriM8n-5" value="Wer" style="swimlane;childLayout=stackLayout;horizontal=1;startSize=30;horizontalStack=0;rounded=1;fontSize=14;fontStyle=0;strokeWidth=2;resizeParent=0;resizeLast=1;shadow=0;dashed=0;align=center;" parent="1" vertex="1">
          <mxGeometry x="280" y="-320" width="160" height="65" as="geometry" />
        </mxCell>
        <mxCell id="AcxDM_mVUxx4Y-OriM8n-7" value="Wann" style="swimlane;childLayout=stackLayout;horizontal=1;startSize=30;horizontalStack=0;rounded=1;fontSize=14;fontStyle=0;strokeWidth=2;resizeParent=0;resizeLast=1;shadow=0;dashed=0;align=center;" parent="1" vertex="1">
          <mxGeometry x="280" y="-470" width="150" height="110" as="geometry" />
        </mxCell>
        <mxCell id="AcxDM_mVUxx4Y-OriM8n-15" value="&lt;span style=&quot;color: rgb(0 , 0 , 0) ; font-family: &amp;#34;helvetica&amp;#34; ; font-size: 12px ; font-style: normal ; font-weight: 400 ; letter-spacing: normal ; text-align: left ; text-indent: 0px ; text-transform: none ; word-spacing: 0px ; background-color: rgb(248 , 249 , 250) ; display: inline ; float: none&quot;&gt;+ Anfang&lt;/span&gt;&lt;br style=&quot;padding: 0px ; margin: 0px ; color: rgb(0 , 0 , 0) ; font-family: &amp;#34;helvetica&amp;#34; ; font-size: 12px ; font-style: normal ; font-weight: 400 ; letter-spacing: normal ; text-align: left ; text-indent: 0px ; text-transform: none ; word-spacing: 0px ; background-color: rgb(248 , 249 , 250)&quot;&gt;&lt;span style=&quot;color: rgb(0 , 0 , 0) ; font-family: &amp;#34;helvetica&amp;#34; ; font-size: 12px ; font-style: normal ; font-weight: 400 ; letter-spacing: normal ; text-align: left ; text-indent: 0px ; text-transform: none ; word-spacing: 0px ; background-color: rgb(248 , 249 , 250) ; display: inline ; float: none&quot;&gt;+ bis&lt;/span&gt;" style="text;whiteSpace=wrap;html=1;" parent="AcxDM_mVUxx4Y-OriM8n-7" vertex="1">
          <mxGeometry y="30" width="150" height="80" as="geometry" />
        </mxCell>
        <mxCell id="AcxDM_mVUxx4Y-OriM8n-16" value="Vorgabe" style="swimlane;childLayout=stackLayout;horizontal=1;startSize=30;horizontalStack=0;rounded=1;fontSize=14;fontStyle=0;strokeWidth=2;resizeParent=0;resizeLast=1;shadow=0;dashed=0;align=center;" parent="1" vertex="1">
          <mxGeometry x="280" y="-220" width="160" height="70" as="geometry" />
        </mxCell>
        <mxCell id="AcxDM_mVUxx4Y-OriM8n-17" value="+ Einrichtung&#xa;" style="align=left;strokeColor=none;fillColor=none;spacingLeft=4;fontSize=12;verticalAlign=top;resizable=0;rotatable=0;part=1;" parent="AcxDM_mVUxx4Y-OriM8n-16" vertex="1">
          <mxGeometry y="30" width="160" height="40" as="geometry" />
        </mxCell>
        <mxCell id="AcxDM_mVUxx4Y-OriM8n-18" value="offene Fragen" style="swimlane;childLayout=stackLayout;horizontal=1;startSize=30;horizontalStack=0;rounded=1;fontSize=14;fontStyle=0;strokeWidth=2;resizeParent=0;resizeLast=1;shadow=0;dashed=0;align=center;" parent="1" vertex="1">
          <mxGeometry x="280" y="882" width="160" height="55" as="geometry" />
        </mxCell>
        <mxCell id="AcxDM_mVUxx4Y-OriM8n-22" value="Layout" style="swimlane;childLayout=stackLayout;horizontal=1;startSize=30;horizontalStack=0;rounded=1;fontSize=14;fontStyle=0;strokeWidth=2;resizeParent=0;resizeLast=1;shadow=0;dashed=0;align=center;" parent="1" vertex="1">
          <mxGeometry x="280" y="-110" width="160" height="120" as="geometry" />
        </mxCell>
        <mxCell id="AcxDM_mVUxx4Y-OriM8n-23" value="+ Farbe&#xa;+ Logos&#xa;+ Design&#xa;+ nochmal bis wann" style="align=left;strokeColor=none;fillColor=none;spacingLeft=4;fontSize=12;verticalAlign=top;resizable=0;rotatable=0;part=1;" parent="AcxDM_mVUxx4Y-OriM8n-22" vertex="1">
          <mxGeometry y="30" width="160" height="90" as="geometry" />
        </mxCell>
        <mxCell id="AcxDM_mVUxx4Y-OriM8n-25" value="Kosten" style="swimlane;childLayout=stackLayout;horizontal=1;startSize=30;horizontalStack=0;rounded=1;fontSize=14;fontStyle=0;strokeWidth=2;resizeParent=0;resizeLast=1;shadow=0;dashed=0;align=center;" parent="1" vertex="1">
          <mxGeometry x="280" y="50" width="160" height="70" as="geometry" />
        </mxCell>
        <mxCell id="AcxDM_mVUxx4Y-OriM8n-26" value="+ wie viel (schÃ¤tzen, geben)&#xa;+ nochmal wann" style="align=left;strokeColor=none;fillColor=none;spacingLeft=4;fontSize=12;verticalAlign=top;resizable=0;rotatable=0;part=1;" parent="AcxDM_mVUxx4Y-OriM8n-25" vertex="1">
          <mxGeometry y="30" width="160" height="40" as="geometry" />
        </mxCell>
        <mxCell id="AcxDM_mVUxx4Y-OriM8n-27" value="Layout" style="swimlane;childLayout=stackLayout;horizontal=1;startSize=30;horizontalStack=0;rounded=1;fontSize=14;fontStyle=0;strokeWidth=2;resizeParent=0;resizeLast=1;shadow=0;dashed=0;align=center;" parent="1" vertex="1">
          <mxGeometry x="280" y="150" width="160" height="120" as="geometry" />
        </mxCell>
        <mxCell id="AcxDM_mVUxx4Y-OriM8n-28" value="+ Farbe&#xa;+ Logos&#xa;+ Design&#xa;+ nochmal bis wann" style="align=left;strokeColor=none;fillColor=none;spacingLeft=4;fontSize=12;verticalAlign=top;resizable=0;rotatable=0;part=1;" parent="AcxDM_mVUxx4Y-OriM8n-27" vertex="1">
          <mxGeometry y="30" width="160" height="90" as="geometry" />
        </mxCell>
        <mxCell id="AcxDM_mVUxx4Y-OriM8n-32" value="Rahmdaten" style="swimlane;childLayout=stackLayout;horizontal=1;startSize=30;horizontalStack=0;rounded=1;fontSize=14;fontStyle=0;strokeWidth=2;resizeParent=0;resizeLast=1;shadow=0;dashed=0;align=center;" parent="1" vertex="1">
          <mxGeometry x="280" y="310" width="160" height="71" as="geometry" />
        </mxCell>
        <mxCell id="AcxDM_mVUxx4Y-OriM8n-33" value="+ Username,Vor und Nach&#xa;" style="align=left;strokeColor=none;fillColor=none;spacingLeft=4;fontSize=12;verticalAlign=top;resizable=0;rotatable=0;part=1;" parent="AcxDM_mVUxx4Y-OriM8n-32" vertex="1">
          <mxGeometry y="30" width="160" height="41" as="geometry" />
        </mxCell>
        <mxCell id="AcxDM_mVUxx4Y-OriM8n-34" value="Aufruf des Payroll Portals" style="swimlane;childLayout=stackLayout;horizontal=1;startSize=30;horizontalStack=0;rounded=1;fontSize=14;fontStyle=0;strokeWidth=2;resizeParent=0;resizeLast=1;shadow=0;dashed=0;align=center;" parent="1" vertex="1">
          <mxGeometry x="280" y="430" width="250" height="71" as="geometry" />
        </mxCell>
        <mxCell id="AcxDM_mVUxx4Y-OriM8n-35" value="+ Intranet&#xa;+ Internet&#xa;&#xa;" style="align=left;strokeColor=none;fillColor=none;spacingLeft=4;fontSize=12;verticalAlign=top;resizable=0;rotatable=0;part=1;" parent="AcxDM_mVUxx4Y-OriM8n-34" vertex="1">
          <mxGeometry y="30" width="250" height="41" as="geometry" />
        </mxCell>
        <mxCell id="AcxDM_mVUxx4Y-OriM8n-38" value="Daten lÃ¶schen" style="swimlane;childLayout=stackLayout;horizontal=1;startSize=30;horizontalStack=0;rounded=1;fontSize=14;fontStyle=0;strokeWidth=2;resizeParent=0;resizeLast=1;shadow=0;dashed=0;align=center;" parent="1" vertex="1">
          <mxGeometry x="280" y="550" width="160" height="71" as="geometry" />
        </mxCell>
        <mxCell id="AcxDM_mVUxx4Y-OriM8n-39" value="+ Zeit&#xa;+ Warnung&#xa;&#xa;" style="align=left;strokeColor=none;fillColor=none;spacingLeft=4;fontSize=12;verticalAlign=top;resizable=0;rotatable=0;part=1;" parent="AcxDM_mVUxx4Y-OriM8n-38" vertex="1">
          <mxGeometry y="30" width="160" height="41" as="geometry" />
        </mxCell>
        <mxCell id="AcxDM_mVUxx4Y-OriM8n-40" value="Mitarbeiter Daten" style="swimlane;childLayout=stackLayout;horizontal=1;startSize=30;horizontalStack=0;rounded=1;fontSize=14;fontStyle=0;strokeWidth=2;resizeParent=0;resizeLast=1;shadow=0;dashed=0;align=center;" parent="1" vertex="1">
          <mxGeometry x="280" y="672" width="160" height="71" as="geometry" />
        </mxCell>
        <mxCell id="AcxDM_mVUxx4Y-OriM8n-41" value="+ Zeit eintritt austritt&#xa;+ Geburtsdatum&#xa;&#xa;" style="align=left;strokeColor=none;fillColor=none;spacingLeft=4;fontSize=12;verticalAlign=top;resizable=0;rotatable=0;part=1;" parent="AcxDM_mVUxx4Y-OriM8n-40" vertex="1">
          <mxGeometry y="30" width="160" height="41" as="geometry" />
        </mxCell>
        <mxCell id="AcxDM_mVUxx4Y-OriM8n-45" value="SciherheitsoptionÂ " style="swimlane;childLayout=stackLayout;horizontal=1;startSize=30;horizontalStack=0;rounded=1;fontSize=14;fontStyle=0;strokeWidth=2;resizeParent=0;resizeLast=1;shadow=0;dashed=0;align=center;" parent="1" vertex="1">
          <mxGeometry x="280" y="782" width="160" height="71" as="geometry" />
        </mxCell>
        <mxCell id="AcxDM_mVUxx4Y-OriM8n-46" value="+ anmelden" style="align=left;strokeColor=none;fillColor=none;spacingLeft=4;fontSize=12;verticalAlign=top;resizable=0;rotatable=0;part=1;" parent="AcxDM_mVUxx4Y-OriM8n-45" vertex="1">
          <mxGeometry y="30" width="160" height="41" as="geometry" />
        </mxCell>
      </root>
    </mxGraphModel>
  </diagram>
</mxfile>
